<!-- Generated by IcoMoon.io -->
<svg version="1.1" xmlns="http://www.w3.org/2000/svg" width="32" height="32" viewBox="0 0 32 32">
<title>close</title>
<path d="M19.882 15.954l9.072-9.072c0.681-0.681 0.799-1.672 0.259-2.21l-1.979-1.979c-0.537-0.537-1.525-0.419-2.21 0.262l-9.069 9.072-9.072-9.072c-0.681-0.681-1.672-0.799-2.21-0.262l-1.979 1.979c-0.537 0.537-0.422 1.529 0.262 2.21l9.072 9.072-9.069 9.072c-0.681 0.681-0.799 1.669-0.262 2.21l1.979 1.979c0.537 0.537 1.529 0.422 2.21-0.259l9.072-9.072 9.069 9.072c0.684 0.684 1.672 0.799 2.21 0.262l1.979-1.979c0.537-0.537 0.422-1.529-0.259-2.21l-9.075-9.075z"></path>
</svg>
