<!-- Generated by IcoMoon.io -->
<svg version="1.1" xmlns="http://www.w3.org/2000/svg" width="32" height="32" viewBox="0 0 32 32">
<title>edit</title>
<path d="M11.018 17.41c-0.016 0.020-0.036 0.044-0.040 0.073l-1.329 4.873c-0.077 0.283 0.004 0.59 0.21 0.804 0.158 0.154 0.364 0.238 0.586 0.238 0.073 0 0.145-0.008 0.218-0.028l4.836-1.317c0.008 0 0.012 0.008 0.016 0.008 0.057 0 0.109-0.020 0.149-0.061l12.933-12.929c0.384-0.384 0.594-0.909 0.594-1.479 0-0.646-0.275-1.293-0.756-1.77l-1.22-1.224c-0.477-0.485-1.123-0.76-1.77-0.76-0.57 0-1.095 0.21-1.479 0.594l-12.929 12.933c-0.016 0.012-0.012 0.032-0.020 0.044zM27.333 7.798l-1.285 1.285-2.081-2.117 1.265-1.265c0.202-0.202 0.59-0.174 0.816 0.061l1.224 1.224c0.129 0.129 0.202 0.295 0.202 0.465-0.004 0.133-0.053 0.259-0.141 0.347zM13.317 17.612l9.333-9.333 2.085 2.117-9.317 9.317-2.101-2.101zM11.616 21.398l0.675-2.477 1.798 1.798-2.473 0.679z"></path>
<path d="M28.154 12.921c-0.489 0-0.893 0.4-0.893 0.893v12.057c0 0.63-0.513 1.147-1.147 1.147h-20.396c-0.63 0-1.147-0.513-1.147-1.147v-19.677c0-0.634 0.517-1.147 1.147-1.147h13.135c0.493 0 0.893-0.4 0.893-0.893s-0.4-0.893-0.893-0.893h-13.269c-1.539 0-2.796 1.253-2.796 2.796v19.947c0 1.543 1.253 2.796 2.796 2.796h20.667c1.543 0 2.796-1.253 2.796-2.796v-12.194c-0.004-0.489-0.404-0.889-0.893-0.889z"></path>
</svg>
