<!-- Generated by IcoMoon.io -->
<svg version="1.1" xmlns="http://www.w3.org/2000/svg" width="32" height="32" viewBox="0 0 32 32">
<title>exchangeMoney</title>
<path fill="#3d9e14" d="M13.984 23.904h-6.176q-0.864-0.064-1.328-0.72t-0.56-1.456q0.096-0.8 0.56-1.312t1.328-0.576h6.176v-2.016l-6.176-0.032q-0.864-0.064-1.328-0.608t-0.56-1.376q0.096-0.8 0.56-1.312t1.328-0.576h4.608l-4.288-7.552q-0.32-0.384-0.608-0.976t-0.256-1.296q0.16-0.896 0.64-1.456t1.792-0.72q0.768 0.064 1.376 0.528t0.992 1.008l4.864 8.896 5.344-8.96q0.384-0.544 0.992-0.96t1.376-0.512q0.48 0.032 0.88 0.128t0.704 0.32 0.512 0.64 0.304 1.088q0 0.928-0.64 1.76l-4.96 8.064h4.704q0.832 0.064 1.312 0.576t0.544 1.312q-0.064 0.832-0.56 1.408t-1.328 0.64l-6.112 0.032v1.952h6.144q0.832 0.064 1.312 0.64t0.544 1.376q-0.064 0.832-0.544 1.392t-1.312 0.624l-6.144-0.032v3.392q-0.128 2.72-2.976 2.72-1.408 0-2.192-0.672t-0.848-2.048v-3.328z"></path>
</svg>
