<!-- Generated by IcoMoon.io -->
<svg version="1.1" xmlns="http://www.w3.org/2000/svg" width="32" height="32" viewBox="0 0 32 32">
<title>exchangePoints</title>
<path fill="#cccd36" d="M31.8 6.6c-0.8-3.8-7.4-6.6-15.8-6.6s-15 2.8-15.8 6.6c-0.2 0.2-0.2 0.6-0.2 0.8v16.6c0 0 0 0.2 0 0.2 0 0.2 0 0.2 0 0.4 0 4.2 6.8 7.4 16 7.4s16-3.2 16-7.4c0-0.2 0-0.2 0-0.4 0 0 0-0.2 0-0.2v-16.6c0-0.2 0-0.6-0.2-0.8zM30 20.8v3.8c0 0.2 0 0.2 0 0.4-0.6 2.4-6.2 5-14 5s-13.4-2.6-14-5c0-0.2 0-0.2 0-0.4v-5c0.2 0.4 0.4 0.4 0.8 0.6s0.6 0.4 1 0.6c0.4 0.2 0.8 0.4 1 0.6 1.6 0.8 3.6 1.2 5.6 1.6 1.8 0.2 3.6 0.4 5.6 0.4s3.8-0.2 5.6-0.4c2.2-0.4 4-0.8 5.6-1.6 0.4-0.2 0.8-0.4 1-0.6 0.4-0.2 0.6-0.4 1-0.6s0.6-0.2 0.8-0.6v1.2zM30 12.4v3.6c0 1-1 2.2-2.8 3.2-0.4 0.2-0.8 0.4-1.2 0.6s-1 0.4-1.6 0.6c-2.2 0.6-5.2 1.2-8.4 1.2s-6.2-0.4-8.4-1.2c-0.6-0.2-1-0.4-1.6-0.6-0.4-0.2-0.8-0.4-1.2-0.6-1.8-1-2.8-2.2-2.8-3.2v-4.8c0.2 0.2 0.4 0.4 0.8 0.6 0.2 0.2 0.6 0.4 1 0.6 0.2 0 0.6 0.2 1 0.4 2.8 1.2 6.8 2 11.2 2s8.4-0.8 11.2-2c0.4-0.2 0.8-0.4 1-0.6 0.4-0.2 0.6-0.4 1-0.6 0.2-0.2 0.6-0.4 0.8-0.6v1.4zM29.8 8c-0.2 1-1.2 1.8-2.8 2.6-0.4 0.2-0.8 0.4-1.2 0.6s-1 0.4-1.6 0.6c-2 0.6-5 1-8.2 1s-6.2-0.4-8.4-1c-0.6-0.2-1-0.4-1.6-0.6-0.4-0.2-0.8-0.4-1.2-0.6-1.4-0.8-2.4-1.6-2.6-2.6-0.2-0.2-0.2-0.4-0.2-0.6 0-0.4 0.2-1 0.6-1.4 1.6-2 6.6-4 13.4-4s11.8 2 13.4 4c0.4 0.4 0.6 1 0.6 1.4 0 0.2 0 0.4-0.2 0.6z"></path>
</svg>
