<!-- Generated by IcoMoon.io -->
<svg version="1.1" xmlns="http://www.w3.org/2000/svg" width="32" height="32" viewBox="0 0 32 32">
<title>integral</title>
<path fill="#60a9d1" d="M16 14.478c-6.787 0-14-2.188-14-6.237s7.213-6.241 14-6.241 14 2.188 14 6.237-7.212 6.241-14 6.241zM16 4.094c-7.372 0-11.9 2.416-11.9 4.144s4.528 4.147 11.9 4.147 11.9-2.416 11.9-4.147-4.528-4.144-11.9-4.144z"></path>
<path fill="#a6cbdd" d="M16 19.222c-6.744 0-14-1.584-14-5.066 0-0.578 0.472-1.047 1.050-1.047s1.050 0.469 1.050 1.047c0 0.887 4.050 2.972 11.9 2.972s11.9-2.084 11.9-2.972c0-0.578 0.469-1.047 1.050-1.047 0.578 0 1.050 0.469 1.050 1.047 0 3.481-7.256 5.066-14 5.066z"></path>
<path fill="#60a9d1" d="M16 24.209c-6.744 0-14-1.584-14-5.066 0-0.578 0.472-1.047 1.050-1.047s1.050 0.469 1.050 1.047c0 0.887 4.050 2.972 11.9 2.972s11.9-2.084 11.9-2.972c0-0.578 0.469-1.047 1.050-1.047 0.578 0 1.050 0.469 1.050 1.047 0 3.481-7.256 5.066-14 5.066z"></path>
<path fill="#a6cbdd" d="M16 30c-6.744 0-14-1.584-14-5.066v-0.953c0-0.578 0.472-1.047 1.050-1.047s1.050 0.469 1.050 1.047v0.953c0 0.887 4.050 2.972 11.9 2.972s11.9-2.084 11.9-2.972v-0.953c0-0.578 0.469-1.047 1.050-1.047 0.578 0 1.050 0.469 1.050 1.047v0.953c0 3.481-7.256 5.066-14 5.066z"></path>
</svg>
