<!-- Generated by IcoMoon.io -->
<svg version="1.1" xmlns="http://www.w3.org/2000/svg" width="32" height="32" viewBox="0 0 32 32">
<title>money</title>
<path fill="#2868f0" d="M8.459 11.556l4.553-6.116c0.463-0.619 1.338-0.75 1.959-0.287l2.003 1.491-8.516 4.912z"></path>
<path fill="#8fb3ff" d="M9.397 11.619l10.494-6.059c0.669-0.388 1.525-0.156 1.913 0.513l3.203 5.547h-15.609z"></path>
<path fill="#2868f0" d="M8.175 11.969h18.191c0.772 0 1.4 0.625 1.4 1.4v11.194c0 0.772-0.625 1.4-1.4 1.4h-18.191c-0.772 0-1.4-0.625-1.4-1.4v-11.194c0-0.772 0.628-1.4 1.4-1.4z"></path>
<path fill="#8fb3ff" d="M9.575 23.863h0.7v1.4h-0.7v-1.4zM9.575 21.066h0.7v1.4h-0.7v-1.4zM9.575 18.266h0.7v1.4h-0.7v-1.4zM9.575 15.469h0.7v1.4h-0.7v-1.4zM9.575 12.669h0.7v1.4h-0.7v-1.4z"></path>
<path fill="#043eb8" d="M22.519 16.519h5.247v4.897h-5.247c-1.353 0-2.45-1.097-2.45-2.45s1.097-2.447 2.45-2.447z"></path>
<path fill="#8fb3ff" d="M22.519 17.566c0.772 0 1.4 0.625 1.4 1.4 0 0.772-0.625 1.4-1.4 1.4-0.772 0-1.4-0.625-1.4-1.4 0-0.772 0.625-1.4 1.4-1.4z"></path>
<path fill="#ffb400" d="M28.506 23.587c1.931 0 3.497 0.784 3.497 1.75s-1.566 1.75-3.497 1.75-3.497-0.784-3.497-1.75c-0.003-0.966 1.563-1.75 3.497-1.75z"></path>
<path fill="#ffd200" d="M28.506 23.587c1.931 0 3.497 0.625 3.497 1.4 0 0.772-1.566 1.4-3.497 1.4s-3.497-0.625-3.497-1.4c-0.003-0.775 1.563-1.4 3.497-1.4z"></path>
<path fill="#ffb400" d="M28.506 22.45c1.931 0 3.497 0.784 3.497 1.75s-1.566 1.75-3.497 1.75-3.497-0.784-3.497-1.75c-0.003-0.966 1.563-1.75 3.497-1.75z"></path>
<path fill="#ffd200" d="M28.506 22.45c1.931 0 3.497 0.625 3.497 1.4 0 0.772-1.566 1.4-3.497 1.4s-3.497-0.625-3.497-1.4c-0.003-0.772 1.563-1.4 3.497-1.4z"></path>
<path fill="#ffb400" d="M28.506 21.212c1.931 0 3.497 0.784 3.497 1.75s-1.566 1.75-3.497 1.75-3.497-0.784-3.497-1.75 1.563-1.75 3.497-1.75z"></path>
<path fill="#ffd200" d="M28.506 21.212c1.931 0 3.497 0.625 3.497 1.4 0 0.772-1.566 1.4-3.497 1.4s-3.497-0.625-3.497-1.4c-0.003-0.775 1.563-1.4 3.497-1.4z"></path>
<path fill="#ffb400" d="M2.928 25.081c0 0.966 1.566 1.75 3.497 1.75s3.497-0.784 3.497-1.75v0c0-0.966-1.566-1.75-3.497-1.75s-3.497 0.784-3.497 1.75v0z"></path>
<path fill="#ffd200" d="M6.425 23.172c1.931 0 3.497 0.625 3.497 1.4 0 0.772-1.566 1.4-3.497 1.4s-3.497-0.628-3.497-1.4c0-0.772 1.566-1.4 3.497-1.4z"></path>
<path fill="#ffb400" d="M2.491 23.453c1.672-0.966 3.422-1.072 3.903-0.234 0.484 0.837-0.356 2.025-2.047 2.972-2.938 1.65-3.694 0.797-4.178-0.038-0.481-0.837 0.647-1.734 2.322-2.7z"></path>
<path fill="#ffd200" d="M2.413 23.306c1.672-0.966 3.344-1.206 3.728-0.538 0.388 0.669-0.656 1.994-2.331 2.959-1.669 0.966-3.341 1.206-3.725 0.538-0.388-0.669 0.656-1.994 2.328-2.959z"></path>
</svg>
