<!-- Generated by IcoMoon.io -->
<svg version="1.1" xmlns="http://www.w3.org/2000/svg" width="32" height="32" viewBox="0 0 32 32">
<title>order</title>
<path fill="#bad4ff" d="M8.138 29.267c-1.178 0-2.136-0.958-2.136-2.136v-18.864c0-1.178 0.958-2.136 2.136-2.136h15.698c1.178 0 2.136 0.958 2.136 2.136v18.868c0 1.178-0.958 2.136-2.136 2.136h-15.698z"></path>
<path fill="#4e8cee" d="M23.836 6.712c0.855 0 1.555 0.699 1.555 1.555v18.868c0 0.855-0.699 1.555-1.555 1.555h-15.698c-0.855 0-1.555-0.699-1.555-1.555v-18.868c0-0.855 0.699-1.555 1.555-1.555h15.698zM23.836 5.549h-15.698c-1.498 0-2.718 1.22-2.718 2.718v18.868c0 1.498 1.22 2.718 2.718 2.718h15.698c1.498 0 2.718-1.22 2.718-2.718v-18.868c0-1.501-1.216-2.718-2.718-2.718z"></path>
<path fill="#fff" d="M9.647 26.994c-0.753 0-1.365-0.612-1.365-1.365v-15.778c0-0.753 0.612-1.365 1.365-1.365h12.684c0.753 0 1.365 0.612 1.365 1.365v15.778c0 0.753-0.612 1.365-1.365 1.365h-12.684z"></path>
<path fill="#4e8cee" d="M22.33 9.001c0.468 0 0.848 0.38 0.848 0.848v15.778c0 0.468-0.38 0.848-0.848 0.848h-12.684c-0.467 0-0.848-0.38-0.848-0.848v-15.774c0-0.467 0.38-0.848 0.848-0.848h12.684zM22.33 7.967h-12.684c-1.038 0-1.885 0.844-1.885 1.885v15.778c0 1.038 0.844 1.885 1.885 1.885h12.684c1.038 0 1.885-0.844 1.885-1.885v-15.778c-0.004-1.041-0.848-1.885-1.885-1.885z"></path>
<path fill="#fff" d="M13.33 8.419c-0.829 0-1.501-0.718-1.501-1.604v-0.836c0-0.886 0.673-1.604 1.501-1.604h1.178v-0.414c0-0.87 0.661-1.577 1.479-1.577h0.042c0.794 0.023 1.437 0.753 1.437 1.623v0.369h1.308c0.829 0 1.501 0.718 1.501 1.604v0.836c0 0.886-0.673 1.604-1.501 1.604h-5.443z"></path>
<path fill="#4e8cee" d="M15.991 2.969h0.023c0.494 0.015 0.874 0.494 0.874 1.041v0.627c0 0.179 0.129 0.323 0.293 0.323h1.6c0.506 0 0.92 0.46 0.92 1.019v0.836c0 0.563-0.414 1.019-0.92 1.019h-5.451c-0.506 0-0.92-0.46-0.92-1.019v-0.836c0-0.563 0.414-1.019 0.92-1.019h1.471c0.16 0 0.293-0.144 0.293-0.323v-0.673c0-0.547 0.399-0.996 0.897-0.996zM15.991 1.805c-0.566 0-1.114 0.247-1.498 0.677-0.327 0.361-0.521 0.821-0.555 1.315h-0.604c-1.148 0-2.083 0.981-2.083 2.186v0.836c0 1.205 0.935 2.186 2.083 2.186h5.443c1.148 0 2.083-0.981 2.083-2.186v-0.836c0-1.205-0.935-2.186-2.083-2.186h-0.734c-0.103-1.087-0.958-1.961-1.995-1.992h-0.057z"></path>
<path fill="#bad4ff" d="M11.289 11.353c0 0.321 0.26 0.582 0.582 0.582s0.582-0.26 0.582-0.582v0c0-0.321-0.26-0.582-0.582-0.582s-0.582 0.26-0.582 0.582v0z"></path>
<path fill="#bad4ff" d="M17.933 11.946h-4.052c-0.312 0-0.57-0.255-0.57-0.57v-0.027c0-0.312 0.255-0.57 0.57-0.57h4.052c0.312 0 0.57 0.255 0.57 0.57v0.027c0 0.315-0.255 0.57-0.57 0.57z"></path>
<path fill="#bad4ff" d="M11.289 17.53c0 0.321 0.26 0.582 0.582 0.582s0.582-0.26 0.582-0.582v0c0-0.321-0.26-0.582-0.582-0.582s-0.582 0.26-0.582 0.582v0z"></path>
<path fill="#bad4ff" d="M15.766 18.096h-1.897c-0.308 0-0.559-0.251-0.559-0.559s0.251-0.559 0.559-0.559h1.897c0.308 0 0.559 0.251 0.559 0.559s-0.251 0.559-0.559 0.559z"></path>
<path fill="#bad4ff" d="M11.289 14.44c0 0.321 0.26 0.582 0.582 0.582s0.582-0.26 0.582-0.582v0c0-0.321-0.26-0.582-0.582-0.582s-0.582 0.26-0.582 0.582v0z"></path>
<path fill="#bad4ff" d="M20.13 15.010h-6.26c-0.308 0-0.559-0.251-0.559-0.559s0.251-0.559 0.559-0.559h6.26c0.308 0 0.559 0.251 0.559 0.559s-0.251 0.559-0.559 0.559z"></path>
<path fill="#bad4ff" d="M11.289 20.616c0 0.321 0.26 0.582 0.582 0.582s0.582-0.26 0.582-0.582v0c0-0.321-0.26-0.582-0.582-0.582s-0.582 0.26-0.582 0.582v0z"></path>
<path fill="#bad4ff" d="M14.964 21.183h-1.095c-0.308 0-0.559-0.251-0.559-0.559s0.251-0.559 0.559-0.559h1.095c0.308 0 0.559 0.251 0.559 0.559s-0.251 0.559-0.559 0.559z"></path>
<path fill="#4e8cee" d="M21.084 24.6l-1.543-1.399c-0.255-0.228-0.274-0.623-0.042-0.878 0.228-0.255 0.623-0.274 0.878-0.042l1.543 1.399c0.255 0.228 0.274 0.623 0.042 0.878-0.228 0.251-0.623 0.27-0.878 0.042z"></path>
<path fill="#bad4ff" d="M18.997 20.757h-3.706v-1.216h3.702c0.334 0 0.608 0.274 0.608 0.608 0.004 0.334-0.27 0.608-0.604 0.608z"></path>
<path fill="#4e8cee" d="M17.952 18.294c1.235 0 2.235 1 2.235 2.235s-1 2.235-2.235 2.235-2.235-1-2.235-2.235 1-2.235 2.235-2.235zM17.952 17.127c-1.874 0-3.402 1.524-3.402 3.402 0 1.874 1.524 3.402 3.402 3.402s3.402-1.524 3.402-3.402c0-1.874-1.524-3.402-3.402-3.402z"></path>
</svg>
