<!-- Generated by IcoMoon.io -->
<svg version="1.1" xmlns="http://www.w3.org/2000/svg" width="32" height="32" viewBox="0 0 32 32">
<title>playVideo</title>
<path fill="#5282c3" d="M16.446 2.088c-7.755 0-14.064 6.298-14.064 14.053s6.31 14.064 14.064 14.064c7.755 0 14.064-6.31 14.064-14.064-0.011-7.755-6.321-14.053-14.064-14.053zM16.446 29.077c-7.134 0-12.935-5.802-12.935-12.935s5.802-12.935 12.935-12.935 12.924 5.813 12.924 12.935c0 7.134-5.802 12.935-12.924 12.935z"></path>
<path fill="#5282c3" d="M20.667 14.978l-5.418-3.127c-0.271-0.158-0.542-0.237-0.801-0.237-0.722 0-1.219 0.576-1.219 1.4v6.231c0 0.384 0.102 0.722 0.305 0.971 0.226 0.282 0.542 0.429 0.914 0.429 0.26 0 0.53-0.079 0.801-0.237l5.418-3.115c0.485-0.282 0.768-0.7 0.768-1.163 0-0.44-0.282-0.869-0.768-1.151zM20.103 16.333l-5.418 3.115c-0.135 0.079-0.214 0.079-0.237 0.079h-0.023c-0.011-0.011-0.068-0.079-0.068-0.271v-6.231c0-0.192 0.045-0.26 0.068-0.271h0.023c0.034 0 0.113 0.011 0.237 0.079l5.418 3.127c0.158 0.090 0.203 0.169 0.203 0.181 0 0.023-0.045 0.102-0.203 0.192z"></path>
</svg>
