<!-- Generated by IcoMoon.io -->
<svg version="1.1" xmlns="http://www.w3.org/2000/svg" width="32" height="32" viewBox="0 0 32 32">
<title>question</title>
<path fill="#bfbfbf" d="M16 2.406c-7.506 0-13.594 6.088-13.594 13.594s6.088 13.594 13.594 13.594c7.506 0 13.594-6.087 13.594-13.594s-6.087-13.594-13.594-13.594v0zM15.912 25.512c-1.106 0-2.006-0.881-2.006-1.966s0.897-1.966 2.006-1.966c1.106 0 2.006 0.881 2.006 1.966s-0.897 1.966-2.006 1.966v0zM21.3 14.391c-0.394 0.619-1.228 1.459-2.509 2.525-0.663 0.55-1.075 0.994-1.234 1.331-0.159 0.334-0.234 0.934-0.219 1.8h-2.856c-0.006-0.409-0.012-0.659-0.012-0.75 0-0.925 0.153-1.684 0.459-2.281s0.919-1.269 1.834-2.012c0.916-0.747 1.466-1.234 1.644-1.466 0.275-0.366 0.416-0.769 0.416-1.206 0-0.609-0.247-1.131-0.734-1.569-0.488-0.434-1.15-0.653-1.978-0.653-0.8 0-1.469 0.228-2.006 0.681s-1 1.453-1.109 2.072c-0.103 0.584-2.919 0.831-2.884-0.353s0.65-2.469 1.706-3.4c1.056-0.931 2.444-1.397 4.159-1.397 1.806 0 3.241 0.472 4.309 1.416s1.6 2.041 1.6 3.294c0.003 0.694-0.194 1.35-0.584 1.969v0z"></path>
</svg>
