<!-- Generated by IcoMoon.io -->
<svg version="1.1" xmlns="http://www.w3.org/2000/svg" width="32" height="32" viewBox="0 0 32 32">
<title>video</title>
<path fill="#2aa385" d="M28.237 10.014h-0.774c-0.33 0-0.651 0.094-0.927 0.267v-0.001l-0.002 0.002c-0.112 0.071-0.209 0.148-0.296 0.234l0-0-0.152 0.15-3.361 2.878v10.395l3.339 2.879 0.174 0.172c0.088 0.086 0.185 0.163 0.289 0.23l0.007 0.004 0.002 0.002v-0.001c0.276 0.173 0.596 0.267 0.927 0.267h0.774c0.963 0 1.745-0.781 1.745-1.746v-13.988c0-0.964-0.782-1.745-1.745-1.745zM20.31 9.236l0.477 0.577c0.47 0.473 0.76 1.125 0.76 1.845 0 1.446-1.172 2.618-2.618 2.618-0.724 0-1.379-0.294-1.853-0.768l-1.152-0.97v6.14h-0c0 1.654-1.341 2.996-2.996 2.996s-2.996-1.341-2.996-2.996v-6.14l-1.152 0.97c-0.474 0.475-1.129 0.768-1.853 0.768-1.446 0-2.618-1.172-2.618-2.618 0-0.72 0.29-1.371 0.76-1.845l-0-0 0.556-0.673h-1.11c-1.381 0-2.5 1.119-2.5 2.5v14.201c0 1.381 1.119 2.5 2.5 2.5h15.109c1.381 0 2.5-1.119 2.5-2.5v-14.201c-0-1.144-0.768-2.108-1.817-2.405z"></path>
<path fill="#2aa385" d="M6.93 12.531c0.241 0 0.459-0.098 0.617-0.256l4.133-3.238v9.767h0.006c0.063 0.631 0.596 1.124 1.244 1.124s1.181-0.493 1.244-1.124h0.006v-9.767l4.133 3.238c0.158 0.158 0.376 0.256 0.617 0.256 0.482 0 0.873-0.391 0.873-0.873 0-0.241-0.098-0.459-0.256-0.617l-5.563-6.805c-0.222-0.347-0.611-0.578-1.054-0.578s-0.832 0.231-1.054 0.578l-5.563 6.805c-0.158 0.158-0.256 0.376-0.256 0.617 0 0.482 0.391 0.873 0.873 0.873z"></path>
</svg>
